<svg width="16" height="16" viewBox="0 0 16 16" fill="none" xmlns="http://www.w3.org/2000/svg">
<g id="camera 1" clip-path="url(#clip0_84_3600)">
<path id="Vector" d="M12.603 2.73943H12.269L10.8328 0.877179C10.6477 0.63901 10.4109 0.446084 10.1402 0.313015C9.86948 0.179946 9.57205 0.110224 9.27042 0.109131L6.72954 0.109131C6.42791 0.110224 6.13048 0.179946 5.85979 0.313015C5.58909 0.446084 5.35223 0.63901 5.16714 0.877179L3.731 2.73943H3.39695C2.52527 2.74048 1.68959 3.08721 1.07322 3.70358C0.45685 4.31996 0.110114 5.15563 0.10907 6.02731L0.10907 12.6031C0.110114 13.4747 0.45685 14.3104 1.07322 14.9268C1.68959 15.5432 2.52527 15.8899 3.39695 15.8909H12.603C13.4747 15.8899 14.3104 15.5432 14.9267 14.9268C15.5431 14.3104 15.8898 13.4747 15.8909 12.6031V6.02731C15.8898 5.15563 15.5431 4.31996 14.9267 3.70358C14.3104 3.08721 13.4747 2.74048 12.603 2.73943ZM6.20874 1.68074C6.27034 1.60121 6.34926 1.53677 6.43951 1.49233C6.52976 1.44789 6.62895 1.42462 6.72954 1.42428H9.27042C9.37099 1.42472 9.47015 1.44803 9.56038 1.49246C9.65062 1.5369 9.72955 1.60128 9.79122 1.68074L10.6079 2.73943H5.39203L6.20874 1.68074ZM14.5757 12.6031C14.5757 13.1263 14.3679 13.628 13.9979 13.998C13.628 14.368 13.1262 14.5758 12.603 14.5758H3.39695C2.87375 14.5758 2.37198 14.368 2.00202 13.998C1.63206 13.628 1.42422 13.1263 1.42422 12.6031V6.02731C1.42422 5.50411 1.63206 5.00234 2.00202 4.63238C2.37198 4.26243 2.87375 4.05459 3.39695 4.05459H12.603C13.1262 4.05459 13.628 4.26243 13.9979 4.63238C14.3679 5.00234 14.5757 5.50411 14.5757 6.02731V12.6031Z" fill="black"/>
<path id="Vector_2" d="M7.99996 5.36963C7.21962 5.36963 6.45681 5.60103 5.80798 6.03456C5.15916 6.46809 4.65346 7.08429 4.35484 7.80522C4.05621 8.52616 3.97808 9.31946 4.13032 10.0848C4.28255 10.8501 4.65832 11.5532 5.2101 12.1049C5.76189 12.6567 6.4649 13.0325 7.23024 13.1847C7.99558 13.337 8.78888 13.2588 9.50982 12.9602C10.2308 12.6616 10.847 12.1559 11.2805 11.5071C11.714 10.8582 11.9454 10.0954 11.9454 9.31508C11.9444 8.269 11.5284 7.26607 10.7887 6.52638C10.049 5.78669 9.04604 5.37067 7.99996 5.36963ZM7.99996 11.9454C7.47974 11.9454 6.97119 11.7911 6.53864 11.5021C6.10609 11.2131 5.76896 10.8023 5.56988 10.3217C5.3708 9.84103 5.31871 9.31217 5.4202 8.80194C5.52169 8.29171 5.7722 7.82303 6.14006 7.45518C6.50791 7.08732 6.97659 6.83681 7.48681 6.73532C7.99704 6.63383 8.52591 6.68592 9.00653 6.885C9.48716 7.08408 9.89796 7.42121 10.187 7.85377C10.476 8.28632 10.6303 8.79486 10.6303 9.31508C10.6303 10.0127 10.3531 10.6817 9.85987 11.175C9.36659 11.6683 8.69756 11.9454 7.99996 11.9454Z" fill="black"/>
</g>
<defs>
<clipPath id="clip0_84_3600">
<rect width="15.7818" height="15.7818" fill="white" transform="translate(0.10907 0.109131)"/>
</clipPath>
</defs>
</svg>
