<svg width="21" height="22" viewBox="0 0 21 22" fill="none" xmlns="http://www.w3.org/2000/svg">
<g id="cross-small 1">
<path id="Vector" d="M15.75 5.75008C15.5859 5.58605 15.3634 5.4939 15.1314 5.4939C14.8994 5.4939 14.6769 5.58605 14.5128 5.75008L10.5 9.76284L6.48727 5.75008C6.32319 5.58605 6.10067 5.4939 5.86865 5.4939C5.63663 5.4939 5.41411 5.58605 5.25002 5.75008C5.08599 5.91417 4.99384 6.13669 4.99384 6.36871C4.99384 6.60073 5.08599 6.82325 5.25002 6.98733L9.26277 11.0001L5.25002 15.0128C5.08599 15.1769 4.99384 15.3994 4.99384 15.6315C4.99384 15.8635 5.08599 16.086 5.25002 16.2501C5.41411 16.4141 5.63663 16.5063 5.86865 16.5063C6.10067 16.5063 6.32319 16.4141 6.48727 16.2501L10.5 12.2373L14.5128 16.2501C14.6769 16.4141 14.8994 16.5063 15.1314 16.5063C15.3634 16.5063 15.5859 16.4141 15.75 16.2501C15.9141 16.086 16.0062 15.8635 16.0062 15.6315C16.0062 15.3994 15.9141 15.1769 15.75 15.0128L11.7373 11.0001L15.75 6.98733C15.9141 6.82325 16.0062 6.60073 16.0062 6.36871C16.0062 6.13669 15.9141 5.91417 15.75 5.75008Z" fill="black"/>
</g>
</svg>
