<svg width="31" height="31" viewBox="0 0 31 31" fill="none" xmlns="http://www.w3.org/2000/svg">
<path d="M17.5 8.29175C17.5 8.66259 17.39 9.02511 17.184 9.33345C16.978 9.64179 16.6852 9.88211 16.3425 10.024C15.9999 10.1659 15.6229 10.2031 15.2592 10.1307C14.8955 10.0584 14.5614 9.8798 14.2992 9.61758C14.037 9.35536 13.8584 9.02126 13.786 8.65755C13.7137 8.29383 13.7508 7.91683 13.8927 7.57422C14.0346 7.23161 14.275 6.93878 14.5833 6.73275C14.8917 6.52672 15.2542 6.41675 15.625 6.41675C16.1223 6.41675 16.5992 6.6143 16.9508 6.96593C17.3025 7.31756 17.5 7.79447 17.5 8.29175ZM30.625 15.1668C30.625 12.2 29.7453 9.29994 28.097 6.8332C26.4488 4.36646 24.1061 2.44388 21.3653 1.30856C18.6244 0.173247 15.6084 -0.123803 12.6987 0.454976C9.78894 1.03375 7.11619 2.46237 5.0184 4.56015C2.92062 6.65794 1.49201 9.33069 0.913228 12.2404C0.334449 15.1501 0.631499 18.1661 1.76681 20.907C2.90213 23.6479 4.82472 25.9906 7.29145 27.6388C9.75819 29.287 12.6583 30.1668 15.625 30.1668H30.625V15.1668ZM28.125 15.1668V27.6668H15.625C13.1527 27.6668 10.736 26.9336 8.68038 25.5601C6.62476 24.1866 5.02261 22.2344 4.07651 19.9503C3.13042 17.6662 2.88288 15.1529 3.36519 12.7281C3.84751 10.3034 5.03802 8.07608 6.78617 6.32792C8.53433 4.57976 10.7616 3.38925 13.1864 2.90694C15.6111 2.42462 18.1245 2.67217 20.4086 3.61826C22.6926 4.56436 24.6449 6.16651 26.0184 8.22213C27.3919 10.2777 28.125 12.6945 28.125 15.1668ZM18.125 15.1668C18.125 14.5037 17.8616 13.8678 17.3928 13.399C16.9239 12.9301 16.288 12.6668 15.625 12.6668H13.125V15.1668H15.625V23.9168H18.125V15.1668Z" fill="#8E8E93"/>
</svg>
