<svg width="31" height="30" viewBox="0 0 31 30" fill="none" xmlns="http://www.w3.org/2000/svg">
<path d="M16.7975 0.990111C16.3384 0.576906 15.7426 0.348267 15.125 0.348267C14.5074 0.348267 13.9116 0.576906 13.4525 0.990111L0.125 12.9851V25.9851C0.125 27.046 0.546427 28.0634 1.29657 28.8135C2.04672 29.5637 3.06413 29.9851 4.125 29.9851H26.125C27.1859 29.9851 28.2033 29.5637 28.9534 28.8135C29.7036 28.0634 30.125 27.046 30.125 25.9851V12.9851L16.7975 0.990111ZM18.875 27.4814H11.375V21.1989C11.375 20.2043 11.7701 19.2505 12.4733 18.5472C13.1766 17.844 14.1304 17.4489 15.125 17.4489C16.1196 17.4489 17.0734 17.844 17.7767 18.5472C18.4799 19.2505 18.875 20.2043 18.875 21.1989V27.4814ZM27.625 25.9814C27.625 26.3792 27.467 26.7607 27.1857 27.042C26.9044 27.3233 26.5228 27.4814 26.125 27.4814H21.375V21.1989C21.375 19.5413 20.7165 17.9515 19.5444 16.7794C18.3723 15.6073 16.7826 14.9489 15.125 14.9489C13.4674 14.9489 11.8777 15.6073 10.7056 16.7794C9.53348 17.9515 8.875 19.5413 8.875 21.1989V27.4814H4.125C3.72718 27.4814 3.34564 27.3233 3.06434 27.042C2.78304 26.7607 2.625 26.3792 2.625 25.9814V14.0976L15.125 2.84761L27.625 14.0976V25.9814Z" fill="#8E8E93"/>
</svg>
