<svg width="31" height="30" viewBox="0 0 31 30" fill="none" xmlns="http://www.w3.org/2000/svg">
<path d="M16.7975 0.989989C16.3384 0.576784 15.7426 0.348145 15.125 0.348145C14.5074 0.348145 13.9116 0.576784 13.4525 0.989989L0.125 12.985V25.985C0.125 27.0459 0.546427 28.0633 1.29657 28.8134C2.04672 29.5636 3.06413 29.985 4.125 29.985H26.125C27.1859 29.985 28.2033 29.5636 28.9534 28.8134C29.7036 28.0633 30.125 27.0459 30.125 25.985V12.985L16.7975 0.989989ZM18.875 27.4812H11.375V21.1987C11.375 20.2042 11.7701 19.2504 12.4733 18.5471C13.1766 17.8438 14.1304 17.4487 15.125 17.4487C16.1196 17.4487 17.0734 17.8438 17.7767 18.5471C18.4799 19.2504 18.875 20.2042 18.875 21.1987V27.4812ZM27.625 25.9812C27.625 26.3791 27.467 26.7606 27.1857 27.0419C26.9044 27.3232 26.5228 27.4812 26.125 27.4812H21.375V21.1987C21.375 19.5411 20.7165 17.9514 19.5444 16.7793C18.3723 15.6072 16.7826 14.9487 15.125 14.9487C13.4674 14.9487 11.8777 15.6072 10.7056 16.7793C9.53348 17.9514 8.875 19.5411 8.875 21.1987V27.4812H4.125C3.72718 27.4812 3.34564 27.3232 3.06434 27.0419C2.78304 26.7606 2.625 26.3791 2.625 25.9812V14.0975L15.125 2.84749L27.625 14.0975V25.9812Z" fill="#7223D8"/>
</svg>
