<svg width="31" height="31" viewBox="0 0 31 31" fill="none" xmlns="http://www.w3.org/2000/svg">
<path d="M30.3602 30.1667H15.3827C12.4564 30.1654 9.59446 29.3081 7.14933 27.7005C4.7042 26.0929 2.78267 23.8052 1.62144 21.1192C0.460213 18.4332 0.109989 15.4662 0.613911 12.5837C1.11783 9.70111 2.45389 7.0289 4.45752 4.89618C6.46115 2.76345 9.04484 1.26336 11.8904 0.580671C14.7359 -0.102021 17.7189 0.0625035 20.4721 1.05398C23.2253 2.04546 25.6284 3.82058 27.3853 6.16071C29.1422 8.50084 30.1763 11.3038 30.3602 14.2242V14.303V30.1667ZM15.3827 2.66675C12.0675 2.66675 8.88805 3.98371 6.54385 6.32791C4.19965 8.67212 2.88268 11.8515 2.88268 15.1667C2.88268 18.482 4.19965 21.6614 6.54385 24.0056C8.88805 26.3498 12.0675 27.6667 15.3827 27.6667H27.8602V14.343C27.6458 11.1784 26.2386 8.21303 23.9226 6.04579C21.6066 3.87854 18.5545 2.6709 15.3827 2.66675Z" fill="#8E8E93"/>
<path d="M16.6102 8.91675H9.11018V11.4167H16.6102V8.91675Z" fill="#8E8E93"/>
<path d="M21.6102 13.9167H9.11018V16.4167H21.6102V13.9167Z" fill="#8E8E93"/>
<path d="M21.6102 18.9167H9.11018V21.4167H21.6102V18.9167Z" fill="#8E8E93"/>
</svg>
