<svg width="31" height="31" viewBox="0 0 31 31" fill="none" xmlns="http://www.w3.org/2000/svg">
<path d="M17.5 8.29163C17.5 8.66247 17.39 9.02498 17.184 9.33333C16.978 9.64167 16.6852 9.88199 16.3425 10.0239C15.9999 10.1658 15.6229 10.203 15.2592 10.1306C14.8955 10.0583 14.5614 9.87968 14.2992 9.61746C14.037 9.35523 13.8584 9.02114 13.786 8.65743C13.7137 8.29371 13.7508 7.91671 13.8927 7.5741C14.0346 7.23149 14.275 6.93865 14.5833 6.73263C14.8917 6.5266 15.2542 6.41663 15.625 6.41663C16.1223 6.41663 16.5992 6.61418 16.9508 6.96581C17.3025 7.31744 17.5 7.79435 17.5 8.29163ZM30.625 15.1666C30.625 12.1999 29.7453 9.29982 28.097 6.83308C26.4488 4.36634 24.1061 2.44375 21.3653 1.30844C18.6244 0.173125 15.6084 -0.123925 12.6987 0.454854C9.78894 1.03363 7.11619 2.46224 5.0184 4.56003C2.92062 6.65782 1.49201 9.33056 0.913228 12.2403C0.334449 15.15 0.631499 18.166 1.76681 20.9069C2.90213 23.6478 4.82472 25.9905 7.29145 27.6387C9.75819 29.2869 12.6583 30.1666 15.625 30.1666H30.625V15.1666ZM28.125 15.1666V27.6666H15.625C13.1527 27.6666 10.736 26.9335 8.68038 25.56C6.62476 24.1865 5.02261 22.2343 4.07651 19.9502C3.13042 17.6661 2.88288 15.1528 3.36519 12.728C3.84751 10.3032 5.03802 8.07595 6.78617 6.3278C8.53433 4.57964 10.7616 3.38913 13.1864 2.90682C15.6111 2.4245 18.1245 2.67204 20.4086 3.61814C22.6926 4.56423 24.6449 6.16639 26.0184 8.222C27.3919 10.2776 28.125 12.6944 28.125 15.1666ZM18.125 15.1666C18.125 14.5036 17.8616 13.8677 17.3928 13.3989C16.9239 12.93 16.288 12.6666 15.625 12.6666H13.125V15.1666H15.625V23.9166H18.125V15.1666Z" fill="#7223D8"/>
</svg>
