<svg width="31" height="31" viewBox="0 0 31 31" fill="none" xmlns="http://www.w3.org/2000/svg">
<path d="M30.3602 30.1666H15.3827C12.4564 30.1652 9.59446 29.3079 7.14933 27.7004C4.7042 26.0928 2.78267 23.8051 1.62144 21.1191C0.460213 18.4331 0.109989 15.4661 0.613911 12.5835C1.11783 9.70098 2.45389 7.02878 4.45752 4.89605C6.46115 2.76333 9.04484 1.26324 11.8904 0.580549C14.7359 -0.102143 17.7189 0.0623815 20.4721 1.05386C23.2253 2.04533 25.6284 3.82046 27.3853 6.16059C29.1422 8.50072 30.1763 11.3036 30.3602 14.2241V14.3029V30.1666ZM15.3827 2.66663C12.0675 2.66663 8.88805 3.98359 6.54385 6.32779C4.19965 8.672 2.88268 11.8514 2.88268 15.1666C2.88268 18.4818 4.19965 21.6613 6.54385 24.0055C8.88805 26.3497 12.0675 27.6666 15.3827 27.6666H27.8602V14.3429C27.6458 11.1783 26.2386 8.21291 23.9226 6.04566C21.6066 3.87842 18.5545 2.67077 15.3827 2.66663Z" fill="#7223D8"/>
<path d="M16.6102 8.91663H9.11018V11.4166H16.6102V8.91663Z" fill="#7223D8"/>
<path d="M21.6102 13.9166H9.11018V16.4166H21.6102V13.9166Z" fill="#7223D8"/>
<path d="M21.6102 18.9166H9.11018V21.4166H21.6102V18.9166Z" fill="#7223D8"/>
</svg>
